<?xml version="1.0" encoding="utf-8"?>
<!-- Generator: Adobe Illustrator 16.0.0, SVG Export Plug-In . SVG Version: 6.00 Build 0)  -->
<!DOCTYPE svg PUBLIC "-//W3C//DTD SVG 1.1//EN" "http://www.w3.org/Graphics/SVG/1.1/DTD/svg11.dtd">
<svg version="1.1" xmlns="http://www.w3.org/2000/svg" xmlns:xlink="http://www.w3.org/1999/xlink" x="0px" y="0px"
	 width="568.394px" height="318.744px" viewBox="0 0 568.394 318.744" enable-background="new 0 0 568.394 318.744"
	 xml:space="preserve">
<g id="Layer_2">
</g>
<g id="Layer_1">
	<path d="M568.799,211.513c-1.498,0.137-3.541,0.073-5.272-0.221c-4.982-0.85-9.65-3.686-14-8.505
		c-4.031-4.465-7.109-10.966-9.228-19.504c-1.28-5.146-2.819-10.371-3.099-15.676c-0.53-9.976,0-39.958,0-39.958h10.365h20.352
		V82.797h-20.352H537.2V19.633h-44.854v63.164v2.718v38.609v3.525c0,0-0.02,30.292,0.24,40.385
		c0.584,22.645,5.9,43.928,22.453,62.252c14.43,15.98,30.27,24.814,47.516,26.5c2.113,0.206,4.193,0.309,6.243,0.315V211.513z"/>
	<path d="M470.442,99.768l-27.765,27.766c-11.285-11.172-21.522-16.758-30.724-16.758c-5.039,0-8.981,1.067-11.83,3.203
		c-2.848,2.136-4.271,4.793-4.271,7.968c0,2.412,0.902,4.629,2.711,6.654c1.807,2.028,6.268,4.793,13.391,8.297l16.429,8.215
		c17.306,8.543,29.189,17.25,35.651,26.123c6.463,8.872,9.696,19.278,9.696,31.215c0,15.882-5.835,29.137-17.501,39.759
		c-11.664,10.626-27.299,15.936-46.904,15.936c-26.067,0-46.881-10.185-62.432-30.558l27.601-30.066
		c5.256,6.136,11.419,11.089,18.485,14.868c7.063,3.778,13.332,5.668,18.811,5.668c5.914,0,10.678-1.421,14.291-4.271
		c3.615-2.847,5.424-6.133,5.424-9.858c0-6.9-6.52-13.636-19.551-20.208l-15.117-7.557c-28.916-14.565-43.372-32.802-43.372-54.709
		c0-14.13,5.446-26.206,16.347-36.227c10.896-10.022,24.834-15.033,41.813-15.033c11.607,0,22.533,2.546,32.777,7.639
		C454.642,82.927,463.322,90.239,470.442,99.768z"/>
	<g>
		<path d="M302.964,113.547c6.858,0,12.754-2.495,17.684-7.487c4.929-4.991,7.395-11.024,7.395-18.1
			c0-7.172-2.49-13.277-7.467-18.317c-4.977-5.039-10.944-7.561-17.901-7.561c-6.959,0-12.901,2.472-17.832,7.415
			c-4.931,4.943-7.392,10.903-7.392,17.882c0,7.268,2.486,13.447,7.463,18.535C289.893,111.003,295.909,113.547,302.964,113.547z"/>
		<rect x="280.237" y="128.72" width="44.854" height="129.794"/>
		<path d="M250.472,128.473H128.895v43.209h69.989c-6.689,14.24-15.486,24.701-26.396,31.381
			c-10.911,6.682-24.316,10.021-40.215,10.021c-24.451,0-45.01-8.104-61.678-24.315c-16.664-16.209-24.996-35.98-24.996-59.311
			c0-5.922,0.569-11.606,1.676-17.061c7.94-37.142,39.463-64.975,78.52-64.975c39.055,0,71.682,27.833,79.624,64.975h45.11
			C242.082,50.264,189.476,2.399,125.794,2.399c-63.68,0-116.743,47.865-125.189,109.998c-0.66,5.395-1.009,10.913-1.009,16.568
			c0,23.33,5.722,45.073,17.17,65.225c11.442,20.153,26.997,35.681,46.658,46.579c14.323,7.938,31.538,12.841,42.606,15.127
			c6.387,1.318,13.037,1.575,19.764,1.575c3.64,0,7.239-0.173,10.799-0.482c20.917-0.795,39.331-5.729,55.228-14.825
			c4.976-2.847,10.191-7.095,14.13-14v30.349h44.851V128.72h-0.319L250.472,128.473z"/>
	</g>
	<polygon fill="#06AA4C" points="117.103,276.292 166.426,321.144 567.989,321.144 567.989,276.292 	"/>
	
		<text transform="matrix(1 0 0 1 250.7998 313.4048)" fill="#FFFFFF" font-family="'CenturyGothic-Bold'" font-size="37.8699" letter-spacing="15">CREATIVE</text>
</g>
</svg>
