<?xml version="1.0" encoding="utf-8"?>
<!-- Generator: Adobe Illustrator 16.0.0, SVG Export Plug-In . SVG Version: 6.00 Build 0)  -->
<!DOCTYPE svg PUBLIC "-//W3C//DTD SVG 1.1//EN" "http://www.w3.org/Graphics/SVG/1.1/DTD/svg11.dtd">
<svg version="1.1" id="Layer_1" xmlns="http://www.w3.org/2000/svg" xmlns:xlink="http://www.w3.org/1999/xlink" x="0px" y="0px"
	 width="568.394px" height="321.144px" viewBox="0 0 568.394 321.144" enable-background="new 0 0 568.394 321.144"
	 xml:space="preserve">
<g id="Layer_1_1_">
	<g>
		<path d="M568.798,211.513c-1.498,0.137-3.541,0.073-5.271-0.221c-4.982-0.85-9.65-3.686-14-8.505
			c-4.031-4.465-7.109-10.966-9.229-19.504c-1.279-5.146-2.818-10.371-3.098-15.677c-0.531-9.976,0-39.958,0-39.958h10.365h20.352
			V82.797h-20.352h-10.365V19.633h-44.855v63.164v2.718v38.609v3.525c0,0-0.02,30.292,0.24,40.385
			c0.584,22.645,5.9,43.928,22.453,62.252c14.43,15.98,30.27,24.814,47.516,26.5c2.113,0.206,4.193,0.309,6.244,0.314V211.513
			L568.798,211.513z"/>
	</g>
	<g>
		<path d="M470.443,99.768l-27.766,27.766c-11.285-11.172-21.521-16.758-30.725-16.758c-5.039,0-8.98,1.067-11.83,3.203
			c-2.848,2.136-4.271,4.793-4.271,7.968c0,2.412,0.902,4.629,2.713,6.654c1.807,2.028,6.268,4.793,13.391,8.297l16.428,8.215
			c17.307,8.543,29.189,17.25,35.652,26.122c6.463,8.873,9.695,19.279,9.695,31.216c0,15.882-5.836,29.137-17.502,39.759
			c-11.662,10.626-27.299,15.936-46.902,15.936c-26.068,0-46.881-10.185-62.434-30.558l27.602-30.065
			c5.256,6.136,11.42,11.088,18.484,14.867c7.064,3.778,13.332,5.668,18.812,5.668c5.914,0,10.678-1.421,14.291-4.271
			c3.615-2.847,5.424-6.134,5.424-9.858c0-6.9-6.52-13.636-19.551-20.207l-15.117-7.558c-28.916-14.565-43.373-32.802-43.373-54.709
			c0-14.13,5.447-26.206,16.348-36.227c10.896-10.022,24.834-15.033,41.812-15.033c11.607,0,22.533,2.546,32.777,7.639
			C454.642,82.927,463.322,90.239,470.443,99.768z"/>
	</g>
	<g>
		<g>
			<path d="M302.964,113.547c6.857,0,12.754-2.495,17.684-7.487c4.93-4.991,7.395-11.024,7.395-18.1
				c0-7.172-2.49-13.277-7.467-18.317c-4.977-5.039-10.943-7.561-17.9-7.561c-6.959,0-12.902,2.472-17.832,7.415
				c-4.932,4.943-7.393,10.903-7.393,17.882c0,7.268,2.486,13.447,7.463,18.535C289.892,111.003,295.91,113.547,302.964,113.547z"/>
		</g>
		<g>
			<rect x="280.236" y="128.72" width="44.855" height="129.795"/>
		</g>
		<g>
			<path d="M250.472,128.473H128.894v43.209h69.99c-6.689,14.239-15.486,24.7-26.396,31.381
				c-10.91,6.682-24.316,10.021-40.215,10.021c-24.451,0-45.01-8.104-61.678-24.315c-16.664-16.209-24.996-35.979-24.996-59.311
				c0-5.922,0.568-11.606,1.676-17.061c7.939-37.142,39.463-64.975,78.52-64.975c39.055,0,71.682,27.833,79.625,64.975h45.109
				C242.082,50.264,189.476,2.399,125.794,2.399S9.05,50.264,0.605,112.397c-0.66,5.395-1.01,10.913-1.01,16.568
				c0,23.33,5.723,45.073,17.17,65.226c11.441,20.152,26.998,35.681,46.658,46.578c14.324,7.938,31.539,12.842,42.605,15.127
				c6.389,1.318,13.037,1.576,19.766,1.576c3.639,0,7.238-0.174,10.799-0.482c20.916-0.795,39.33-5.729,55.227-14.825
				c4.977-2.847,10.191-7.095,14.131-14v30.349h44.852V128.72h-0.32L250.472,128.473z"/>
		</g>
	</g>
	<g>
		<polygon fill="#06AA4C" points="117.103,276.292 166.425,321.144 567.99,321.144 567.99,276.292 		"/>
	</g>
	<g enable-background="new    ">
		<path fill="#FFFFFF" d="M278.906,290.984l-3.621,3.452c-2.463-2.604-5.234-3.906-8.313-3.906c-2.599,0-4.788,0.889-6.568,2.666
			c-1.78,1.776-2.67,3.967-2.67,6.57c0,1.814,0.394,3.425,1.183,4.832c0.788,1.406,1.903,2.511,3.344,3.312
			c1.441,0.802,3.042,1.203,4.804,1.203c1.502,0,2.875-0.28,4.12-0.842s2.611-1.583,4.102-3.063l3.51,3.663
			c-2.009,1.961-3.908,3.32-5.695,4.079c-1.788,0.758-3.828,1.138-6.121,1.138c-4.229,0-7.689-1.341-10.383-4.022
			c-2.693-2.681-4.04-6.117-4.04-10.309c0-2.712,0.613-5.122,1.84-7.23c1.227-2.107,2.983-3.803,5.27-5.085
			c2.286-1.281,4.749-1.923,7.387-1.923c2.243,0,4.404,0.474,6.481,1.422C275.612,287.889,277.402,289.236,278.906,290.984z"/>
		<path fill="#FFFFFF" d="M298.785,286.204h5.485c3.005,0,5.144,0.268,6.418,0.804s2.3,1.428,3.075,2.672
			c0.775,1.246,1.164,2.719,1.164,4.42c0,1.787-0.428,3.282-1.285,4.484c-0.856,1.201-2.148,2.11-3.873,2.728l6.443,12.093h-5.66
			l-6.116-11.52h-0.474v11.52h-5.178V286.204z M303.962,296.836h1.622c1.646,0,2.78-0.216,3.401-0.649
			c0.62-0.433,0.93-1.149,0.93-2.151c0-0.594-0.152-1.11-0.46-1.549c-0.308-0.439-0.72-0.755-1.235-0.946
			c-0.516-0.192-1.463-0.288-2.839-0.288h-1.419V296.836z"/>
		<path fill="#FFFFFF" d="M335.416,286.204h14.849v5.066h-9.708v4.919h9.708v4.974h-9.708v7.156h9.708v5.085h-14.849V286.204z"/>
		<path fill="#FFFFFF" d="M378.384,286.204h5.252l10.461,27.2h-5.381l-2.129-5.603H375.49l-2.213,5.603h-5.381L378.384,286.204z
			 M381.042,293.415l-3.649,9.338h7.277L381.042,293.415z"/>
		<path fill="#FFFFFF" d="M410.416,286.204h15.033v5.104h-4.955v22.097h-5.252v-22.097h-4.826V286.204z"/>
		<path fill="#FFFFFF" d="M443.626,286.204h5.141v27.2h-5.141V286.204z"/>
		<path fill="#FFFFFF" d="M467.527,286.204h5.322l6.844,19.323l6.943-19.323h5.316l-9.8,27.2h-4.993L467.527,286.204z"/>
		<path fill="#FFFFFF" d="M511.119,286.204h14.85v5.066h-9.709v4.919h9.709v4.974h-9.709v7.156h9.709v5.085h-14.85V286.204z"/>
	</g>
</g>
</svg>
